<?xml version="1.0" encoding="UTF-8"?>
<svg id="Layer_1" data-name="Layer 1" xmlns="http://www.w3.org/2000/svg" viewBox="0 0 325 53">
  <defs>
    <style>
      .cls-1 {
        fill: #fff;
      }
    </style>
  </defs>
  <path class="cls-1" d="M2.003,48.617v-15.123c2.556,3.492,5.321,5.239,8.294,5.239,1.122,0,2.037-.296,2.744-.889.707-.591,1.06-1.335,1.06-2.229,0-1.289-.769-2.547-2.307-3.773l-2.12-1.653c-1.414-1.06-2.619-2.115-3.617-3.165s-1.808-2.131-2.432-3.243c-.623-1.112-1.081-2.261-1.372-3.445-.292-1.185-.437-2.432-.437-3.742,0-2.245.519-4.594,1.559-7.047.519-1.143,1.123-2.187,1.809-3.133s1.475-1.782,2.37-2.51C10.005,1.824,12.968.784,16.439.784c3.097,0,6.215.822,9.355,2.463v14.718c-1.061-1.642-2.266-2.936-3.617-3.882-1.352-.945-2.682-1.419-3.992-1.419-.998,0-1.819.291-2.463.873-.666.561-.998,1.237-.998,2.027,0,1.289.883,2.568,2.65,3.835l2.058,1.528c2.744,1.975,4.709,4.002,5.894,6.08,1.205,2.079,1.808,4.511,1.808,7.296,0,4.739-1.445,8.648-4.334,11.725s-6.548,4.614-10.976,4.614c-3.055,0-6.33-.675-9.822-2.026Z"/>
  <path class="cls-1" d="M54.341,49.801h-22.762V1.658h13.002v36.576h9.76v11.568Z"/>
  <path class="cls-1" d="M70.571,49.801h-13.002V1.658h13.002v48.143Z"/>
  <path class="cls-1" d="M89.67,49.801h-13.002V1.658h12.597c6.277,0,10.934,1.278,13.969,3.835,3.575,3.014,5.363,7.203,5.363,12.566,0,5.841-1.901,10.196-5.706,13.065-2.599,1.933-6.33,2.9-11.194,2.9h-2.027v15.778ZM89.67,23.203l.593.032c1.579,0,2.838-.484,3.773-1.45.936-.967,1.403-2.292,1.403-3.976,0-1.663-.457-3.014-1.372-4.053-.915-1.061-2.079-1.591-3.493-1.591h-.904v11.038Z"/>
  <path class="cls-1" d="M111.482,48.617v-15.123c2.556,3.492,5.321,5.239,8.294,5.239,1.122,0,2.037-.296,2.744-.889.707-.591,1.06-1.335,1.06-2.229,0-1.289-.769-2.547-2.307-3.773l-2.12-1.653c-1.414-1.06-2.619-2.115-3.617-3.165s-1.808-2.131-2.432-3.243c-.623-1.112-1.081-2.261-1.372-3.445-.292-1.185-.437-2.432-.437-3.742,0-2.245.519-4.594,1.559-7.047.519-1.143,1.123-2.187,1.809-3.133s1.475-1.782,2.37-2.51c2.452-2.078,5.415-3.118,8.886-3.118,3.097,0,6.215.822,9.355,2.463v14.718c-1.061-1.642-2.266-2.936-3.617-3.882-1.352-.945-2.682-1.419-3.992-1.419-.998,0-1.819.291-2.463.873-.666.561-.998,1.237-.998,2.027,0,1.289.883,2.568,2.65,3.835l2.058,1.528c2.744,1.975,4.709,4.002,5.894,6.08,1.205,2.079,1.808,4.511,1.808,7.296,0,4.739-1.445,8.648-4.334,11.725s-6.548,4.614-10.976,4.614c-3.055,0-6.33-.675-9.822-2.026Z"/>
  <path class="cls-1" d="M158.487,49.801h-13.002V13.194h-7.172V1.658h27.626v11.537h-7.452v36.607Z"/>
  <path class="cls-1" d="M202.905,49.801h-14.062l-6.423-17.15c-.062-.29-.172-.675-.328-1.153-.155-.478-.348-1.05-.577-1.715l.094,3.18v16.837h-12.94V1.658h13.314c5.862,0,10.247,1.153,13.158,3.461,3.7,2.952,5.55,7.151,5.55,12.597,0,5.82-2.484,9.843-7.451,12.067l9.665,20.018ZM181.671,23.952h.873c1.497,0,2.744-.572,3.742-1.716.998-1.143,1.497-2.598,1.497-4.365,0-3.596-1.882-5.394-5.644-5.394h-.468v11.475Z"/>
  <path class="cls-1" d="M206.57,49.801V1.658h24.165v11.318h-11.163v7.016h10.009v10.882h-10.009v7.359h11.163v11.568h-24.165Z"/>
  <path class="cls-1" d="M270.319,49.801h-13.439l-.966-6.112h-8.762l-1.06,6.112h-13.439L244.221,1.658h15.903l10.196,48.143ZM254.386,33.368l-.842-5.612c-.021-.021-.062-.301-.124-.842-.042-.457-.261-2.265-.655-5.426-.042-.353-.094-.836-.156-1.45-.062-.613-.146-1.387-.25-2.323l-.405-4.553c-.042.437-.099.925-.172,1.465s-.151,1.133-.233,1.777c-.146,1.289-.25,2.183-.312,2.682-.062.5-.105.801-.124.904l-.905,5.831-1.309,7.546h5.487Z"/>
  <path class="cls-1" d="M323,49.801h-13.595l-.966-21.951-.405-8.762c-.146,1.684-.312,3.29-.499,4.818-.188,1.528-.417,3.009-.687,4.443l-4.085,21.452h-10.602l-3.492-21.484c-.208-1.247-.488-3.387-.842-6.423-.042-.457-.135-1.393-.281-2.807l-.312,8.887-1.154,21.827h-13.844l5.612-48.143h16.183l2.713,16.214c.229,1.331.431,2.775.609,4.334.176,1.559.337,3.254.483,5.083.27-3.055.644-5.788,1.122-8.201l3.305-17.43h16.059l4.676,48.143Z"/>
</svg>